<svg width="187" height="42" viewBox="0 0 187 42" fill="none" xmlns="http://www.w3.org/2000/svg">
<g clip-path="url(#clip0_19_100)">
<path d="M72.9627 34.8657C72.9113 34.8657 72.8557 34.8657 72.8022 34.8657H59.2006V5.94275C59.2006 5.90846 59.2006 5.87845 59.2006 5.85059C59.1895 5.58262 59.0753 5.32936 58.8818 5.14396C58.6884 4.95856 58.4307 4.85542 58.163 4.85621H57.6111C57.3582 4.87237 57.1199 4.98029 56.9407 5.15977C56.7616 5.33926 56.6538 5.57799 56.6377 5.8313C56.6377 5.86345 56.6377 5.89988 56.6377 5.9406V36.2651C56.6377 36.3058 56.6377 36.3401 56.6377 36.3723C56.653 36.6262 56.7607 36.8658 56.9405 37.0455C57.1203 37.2252 57.3597 37.3326 57.6132 37.3474H57.7202H72.8065C72.8621 37.3474 72.9156 37.3474 72.9627 37.3474C73.2064 37.326 73.4348 37.219 73.6074 37.0452C73.78 36.8715 73.8858 36.6423 73.9061 36.398C73.9061 36.3508 73.9061 36.2994 73.9061 36.2458V35.9565C73.9061 35.9158 73.9061 35.8815 73.9061 35.8515C73.8946 35.6006 73.7927 35.3624 73.6192 35.1811C73.4457 34.9998 73.2124 34.8877 72.9627 34.8657V34.8657Z" fill="#ECECEA"/>
<path d="M152.778 18.649L164.897 6.72062C165.06 6.55994 165.171 6.35439 165.217 6.1301C165.263 5.9058 165.242 5.67288 165.155 5.4609C165.069 5.24892 164.921 5.06746 164.732 4.93956C164.542 4.81165 164.319 4.74309 164.09 4.74256H163.739C163.474 4.72503 163.209 4.76844 162.963 4.86947C162.717 4.9705 162.498 5.12647 162.321 5.32548L145.968 21.4778V5.94268C145.968 5.89982 145.968 5.86339 145.968 5.83124C145.953 5.555 145.839 5.29357 145.647 5.09481C145.454 4.89606 145.197 4.77329 144.922 4.74899C144.867 4.74899 144.809 4.74899 144.751 4.74899H144.201C143.923 4.76963 143.661 4.89058 143.464 5.0895C143.268 5.28842 143.149 5.55188 143.132 5.83124C143.132 5.86553 143.132 5.90411 143.132 5.94697V36.3015C143.132 36.5981 143.246 36.8832 143.45 37.0978C143.654 37.3125 143.933 37.4402 144.229 37.4545H144.753C144.807 37.4545 144.859 37.4545 144.907 37.4545C145.197 37.4324 145.468 37.3017 145.667 37.0885C145.865 36.8752 145.976 36.595 145.977 36.3036V25.3354L150.683 20.7042L163.979 36.7644C164.137 36.9843 164.346 37.1623 164.588 37.2829C164.83 37.4035 165.097 37.4632 165.367 37.4566H165.894C166.113 37.4566 166.327 37.3942 166.512 37.2767C166.697 37.1591 166.844 36.9913 166.937 36.7928C167.03 36.5943 167.065 36.3734 167.038 36.1559C167.01 35.9383 166.921 35.7331 166.782 35.5643L152.778 18.649Z" fill="#ECECEA"/>
<path d="M185.802 7.40855H185.905C186.19 7.39453 186.46 7.27465 186.662 7.07224C186.864 6.86982 186.984 6.59935 186.998 6.31344C186.998 6.28343 186.998 6.24915 186.998 6.21057V5.96626C186.998 5.91054 186.998 5.85911 186.998 5.80982C186.978 5.52895 186.856 5.26505 186.656 5.06772C186.455 4.8704 186.19 4.75324 185.909 4.73828H170.559C170.285 4.75537 170.026 4.8709 169.829 5.06374C169.633 5.25657 169.512 5.51381 169.49 5.78839C169.487 5.84477 169.487 5.9013 169.49 5.95769V36.2351C169.486 36.2907 169.486 36.3466 169.49 36.4022C169.512 36.6768 169.633 36.934 169.829 37.1269C170.026 37.3197 170.285 37.4352 170.559 37.4523H170.673H185.907C186.192 37.4383 186.462 37.3184 186.664 37.116C186.866 36.9136 186.986 36.6431 187 36.3572C187 36.3272 187 36.2929 187 36.2544V35.9865C187 35.9479 187 35.9136 187 35.8836C186.986 35.5979 186.866 35.3277 186.664 35.1256C186.462 34.9236 186.192 34.8041 185.907 34.7906H185.804H172.269V20.7878L182.231 20.7663H182.334C182.619 20.7523 182.889 20.6323 183.091 20.4299C183.292 20.2274 183.412 19.957 183.425 19.6712C183.425 19.6412 183.425 19.6069 183.425 19.5684V19.3241C183.425 19.2683 183.425 19.2147 183.425 19.1676C183.404 18.8872 183.282 18.6241 183.082 18.427C182.881 18.23 182.616 18.1124 182.336 18.0961H172.282V7.40855H185.802Z" fill="#ECECEA"/>
<path d="M90.5477 4.1897H90.3231C88.2223 4.1897 82.8612 4.66332 78.465 9.06091C74.0687 13.4585 73.6045 18.9448 73.6045 21.0986C73.6045 25.7255 75.3352 30.0009 78.4757 33.1405C81.6161 36.2801 85.8413 37.9817 90.4407 38.0096H90.6654C92.7661 38.0096 98.1272 37.5338 102.523 33.1384C106.92 28.7429 107.395 23.2524 107.395 21.0964C107.395 16.4717 105.664 12.1941 102.523 9.05663C99.383 5.91916 95.1472 4.21541 90.5477 4.1897ZM104.588 21.0986C104.607 22.9792 104.255 24.8452 103.552 26.589C102.848 28.3327 101.807 29.9199 100.489 31.2589C97.8233 33.8902 94.2312 35.3652 90.4889 35.3652C86.7465 35.3652 83.1544 33.8902 80.4887 31.2589C77.8593 28.5329 76.3895 24.8904 76.3895 21.0996C76.3895 17.3089 77.8593 13.6664 80.4887 10.9404C83.1539 8.30804 86.7462 6.83232 90.4889 6.83232C94.2316 6.83232 97.8239 8.30804 100.489 10.9404C101.807 12.279 102.848 13.8658 103.552 15.6092C104.255 17.3526 104.607 19.2182 104.588 21.0986V21.0986Z" fill="#ECECEA"/>
<path d="M139.268 30.7059L138.992 30.4916C138.793 30.3407 138.55 30.2593 138.301 30.2601C138.072 30.2608 137.849 30.3294 137.659 30.4573C137.526 30.5508 137.402 30.6555 137.287 30.7702L137.244 30.8152C135.974 32.2333 134.423 33.3703 132.689 34.1533C130.956 34.9364 129.078 35.3483 127.177 35.3628H127.145C125.769 35.3628 120.986 35.0649 117.175 31.2524C113.477 27.5491 113.077 22.9158 113.077 21.0942C113.077 19.2726 113.477 14.6457 117.175 10.936C118.138 9.97164 121.668 6.82346 126.826 6.82346H127.16C127.228 6.82346 132.85 7.03777 137 11.3582C137.027 11.3882 137.055 11.4161 137.086 11.4418C137.187 11.5354 137.296 11.6207 137.411 11.6968C137.618 11.8314 137.862 11.8961 138.108 11.8814C138.354 11.8667 138.589 11.7735 138.778 11.6154L139.02 11.4139C139.131 11.3224 139.228 11.2156 139.309 11.0968C139.425 10.9225 139.492 10.7197 139.503 10.5101C139.513 10.3005 139.466 10.0921 139.366 9.90735C139.304 9.79315 139.228 9.68729 139.14 9.59231C137.632 7.90499 135.79 6.55169 133.73 5.61912C131.67 4.68655 129.439 4.19527 127.179 4.17676H127.006C124.909 4.17676 119.559 4.65038 115.162 9.05012C110.766 13.4499 110.289 18.9361 110.289 21.0899C110.289 25.7168 112.02 29.9923 115.162 33.1319C119.552 37.5187 125.003 37.9988 127.13 38.0009C127.344 38.0009 132.172 37.9709 136.185 35.3971C137.719 34.4134 139.493 32.5061 139.508 32.4889L139.55 32.4354C139.584 32.3915 139.616 32.3457 139.644 32.2982C139.783 32.0749 139.842 31.8108 139.812 31.5495C139.781 31.2882 139.662 31.0451 139.475 30.8602C139.41 30.8034 139.341 30.7518 139.268 30.7059V30.7059Z" fill="#ECECEA"/>
<path d="M38.2269 12.179C36.8029 10.6716 35.0342 9.53379 33.0734 8.8637C32.7784 8.00323 32.3948 7.17583 31.9289 6.39487C30.5455 4.07907 28.4924 2.23903 26.0415 1.11862C24.3971 0.379771 22.6153 -0.00219727 20.8131 -0.00219727C19.0109 -0.00219727 17.229 0.379771 15.5847 1.11862C14.2043 1.74518 12.9484 2.6164 11.8773 3.69031L3.67949 11.9047L3.65381 11.9283C2.15793 13.5046 1.08155 15.4324 0.523622 17.5343C-0.0343042 19.6362 -0.0558772 21.8449 0.460869 23.9574C0.977615 26.0698 2.0161 28.0183 3.4809 29.6237C4.9457 31.229 6.78982 32.4398 8.84374 33.1447C9.13511 34.0105 9.52109 34.8413 9.99467 35.6221C11.7853 38.5689 15.7537 42.0128 21.0399 42.0128H21.1083C25.8361 41.9871 29.1221 39.2032 30.0163 38.3524V38.3417L38.2184 30.1251L38.2419 30.1016C40.6023 27.7175 41.9254 24.495 41.9226 21.1372C41.9198 17.7795 40.5913 14.5591 38.2269 12.179V12.179ZM8.21265 30.0609C8.08001 29.9901 7.94951 29.9151 7.82116 29.8465C5.40161 28.4107 2.57775 25.1982 2.57989 20.8692C2.57989 19.8812 2.79381 16.4502 5.51499 13.7306C6.29993 12.9455 7.20752 12.2941 8.20196 11.8019C7.97368 15.0899 9.03605 18.3372 11.1627 20.8521C10.0886 22.1172 9.27488 23.5828 8.76857 25.1644C8.26226 26.746 8.07333 28.4123 8.21265 30.0673V30.0609ZM33.2296 25.7254C32.7287 24.0456 31.8876 22.4873 30.7587 21.1478C31.8312 19.8816 32.6439 18.4159 33.1501 16.8346C33.6564 15.2533 33.8462 13.5875 33.7088 11.9326C35.4 12.7799 36.8226 14.0819 37.8172 15.693C38.8119 17.304 39.3394 19.1606 39.3407 21.0549C39.342 22.9492 38.8171 24.8065 37.8248 26.419C36.8324 28.0315 35.4117 29.3355 33.7216 30.1852C33.8219 28.6811 33.6553 27.1712 33.2296 25.7254V25.7254ZM11.09 31.6317C10.6469 29.9316 10.6515 28.1455 11.1033 26.4477C11.5551 24.7499 12.4387 23.1985 13.6679 21.945L16.4618 19.144L16.4425 19.3026C15.9847 23.1087 17.4458 26.1497 18.0941 27.2813C19.5814 29.8367 21.8755 31.8234 24.6146 32.9283C26.6418 33.7275 28.8401 33.991 30.9983 33.6934L28.307 36.3894C27.4265 37.2907 26.3843 38.0177 25.235 38.5324C23.9347 39.1093 22.5283 39.4072 21.1062 39.4068C19.6829 39.4033 18.2757 39.1049 16.9731 38.5303C14.9535 37.6222 13.2686 36.1031 12.1554 34.1863C11.7308 33.4573 11.396 32.6794 11.1584 31.8696V31.8696C11.1584 31.8696 11.1221 31.7646 11.09 31.6317ZM10.906 10.9253C11.4617 10.8255 12.0251 10.7753 12.5896 10.7753H12.6581C15.3151 10.7946 17.463 11.9219 18.9241 13.017L12.9704 18.9812C12.0764 17.8615 11.43 16.5643 11.0741 15.1755C10.7182 13.7867 10.6609 12.338 10.906 10.9253V10.9253ZM22.2785 17.406C22.3491 17.586 23.9899 21.8786 21.7394 26.0169C21.5395 26.384 21.3158 26.7377 21.0698 27.0756C20.7857 26.7148 20.5283 26.3338 20.2997 25.9354C19.4936 24.4799 19.0439 22.8535 18.9878 21.19C18.9316 19.5265 19.2705 17.8733 19.9766 16.3666C20.2241 15.8587 20.5162 15.3739 20.8495 14.9179C21.4439 15.6733 21.9253 16.5115 22.2785 17.406V17.406ZM28.951 23.0144C29.8446 24.1335 30.4907 25.43 30.8466 26.818C31.2025 28.2061 31.26 29.654 31.0154 31.066C30.4339 31.167 29.8449 31.2179 29.2547 31.2181C28.1864 31.2195 27.1247 31.0494 26.11 30.7145C24.9726 30.3324 23.9116 29.752 22.9759 29L28.951 23.0144ZM28.2514 20.0548L25.4083 22.903C25.661 21.1749 25.5561 19.4132 25.1002 17.7275C24.8007 16.6668 24.3695 15.648 23.8167 14.695C23.2695 13.7796 22.6152 12.9328 21.8678 12.1726C20.689 10.9832 17.4309 8.21434 12.656 8.18863H12.5896C12.0336 8.18914 11.4783 8.22708 10.9274 8.30221L13.6828 5.54193C14.5271 4.69306 15.516 4.00213 16.603 3.50172C17.9104 2.90733 19.3281 2.59553 20.7639 2.58663H20.8152C24.3365 2.60592 27.9369 4.70827 29.7767 7.81788C30.2021 8.53984 30.5335 9.31334 30.7629 10.1195C30.7629 10.1195 30.7993 10.246 30.8314 10.3703C31.2741 12.0702 31.269 13.8561 30.8168 15.5535C30.3646 17.251 29.4807 18.8019 28.2514 20.0548V20.0548Z" fill="#007CF9"/>
</g>
<defs>
<clipPath id="clip0_19_100">
<rect width="187" height="42" fill="white"/>
</clipPath>
</defs>
</svg>
